<?xml version="1.0" encoding="utf-8"?>
<!-- Generator: Adobe Illustrator 22.0.0, SVG Export Plug-In . SVG Version: 6.00 Build 0)  -->
<svg version="1.1" id="Слой_1" xmlns="http://www.w3.org/2000/svg" xmlns:xlink="http://www.w3.org/1999/xlink" x="0px" y="0px"
	 viewBox="0 0 500 500" style="enable-background:new 0 0 500 500;" xml:space="preserve" fill="#358D28">
<style type="text/css">
	.st0{clip-path:url(#SVGID_2_);}
</style>
<g>
	<g>
		<defs>
			<rect id="SVGID_1_" x="105" y="11" width="289" height="479"/>
		</defs>
		<clipPath id="SVGID_2_">
			<use xlink:href="#SVGID_1_"  style="overflow:visible;"/>
		</clipPath>
		<path class="st0" d="M393.2,250.5v-16h-55.9c-22,0-39.9-17.9-39.9-39.9v-87.8c0-30.9-25-55.8-55.9-55.9h-40.6
			c-4.1-24.6-26.4-41.8-51.2-39.8c-24.8,2.1-43.9,22.8-43.9,47.7v215.6c0,4.4,3.6,8,8,8h8v135.7c0,4.4,3.6,8,8,8h16V482
			c0,4.4,3.6,8,8,8c4.4,0,8-3.6,8-8v-55.9h16c4.4,0,8-3.6,8-8V282.4h8c4.4,0,8-3.6,8-8V66.9h39.9c22,0,39.9,17.9,39.9,39.9v87.8
			c0,30.8,25,55.8,55.9,55.9H393.2z M169.7,314.4h-16v16h16v16h-16v16h16v47.9h-31.9v-63.9h16v-16h-16v-16h16v-16h-16v-16h31.9
			V314.4z M185.6,266.5h-63.9v-31.9h63.9V266.5z M185.6,218.6h-63.9V58.9c0-16.1,11.9-29.6,27.8-31.7c15.9-2,30.9,8.1,34.9,23.7
			h-30.8v16h31.9V218.6z M185.6,218.6"/>
	</g>
</g>
</svg>
