<svg width="60.00000000000001" height="60.00000000000001" xmlns="http://www.w3.org/2000/svg">

 <g>
  <title>background</title>
  <rect fill="none" id="canvas_background" height="402" width="582" y="-1" x="-1"/>
 </g>
 <g>
  <title>Layer 1</title>
  <path fill="#358d28" id="svg_1" d="m59.989,21c-0.099,-1.711 -2.134,-3.048 -6.204,-4.068c0.137,-0.3 0.214,-0.612 0.215,-0.936l0,-6.996l-0.017,0c-0.358,-5.828 -24.24,-6 -26.983,-6s-26.625,0.172 -26.983,6l-0.017,0l0,0.13l0,0l0,0l0,6.869c0.005,1.9 2.457,3.387 6.105,4.494c-0.05,0.166 -0.08,0.335 -0.09,0.507l-0.015,0l0,0.13l0,0l0,0l0,6.857c-3.93,1.012 -5.893,2.33 -5.99,4.013l-0.01,0l0,0.13l0,0l0,0l0,6.869c0.003,1.323 1.196,2.445 3.148,3.38c-0.074,0.203 -0.12,0.41 -0.133,0.622l-0.015,0l0,0.13l0,0l0,0l0,6.869c0.008,3.326 7.497,5.391 15.818,6.355c0.061,0.012 0.117,0.037 0.182,0.037c0.019,0 0.035,-0.01 0.054,-0.011c1.604,0.181 3.234,0.322 4.847,0.423c0.034,0.004 0.064,0.02 0.099,0.02c0.019,0 0.034,-0.01 0.052,-0.011c2.048,0.124 4.063,0.187 5.948,0.187c1.885,0 3.9,-0.063 5.948,-0.188c0.018,0.001 0.034,0.011 0.052,0.011c0.035,0 0.065,-0.017 0.099,-0.02c1.613,-0.101 3.243,-0.241 4.847,-0.423c0.019,0 0.035,0.01 0.054,0.01c0.065,0 0.121,-0.025 0.182,-0.037c8.321,-0.964 15.809,-3.03 15.818,-6.357l0,-6.996l-0.016,0c-0.07,-1.226 -1.115,-2.249 -3.179,-3.104c0.126,-0.289 0.195,-0.589 0.195,-0.9l0,-6.536c3.59,-1.104 5.995,-2.581 6,-4.464l0,-6.996l-0.011,0zm-8.097,18.321l-0.341,0.299c-0.525,0.463 -1.4,0.93 -2.551,1.38l0,-4.768c1.189,-0.414 2.201,-0.873 3,-1.376l0,4.138c0,0.103 -0.038,0.213 -0.108,0.327zm-22.366,4.647c-0.146,0.004 -0.293,0.006 -0.44,0.009c-0.357,0.007 -0.723,0.009 -1.085,0.012l0,-4.995c0.275,-0.003 0.55,-0.007 0.825,-0.012c0.053,-0.001 0.106,-0.002 0.159,-0.003c1.007,-0.019 2.014,-0.05 3.016,-0.096l0,4.993c-0.214,0.011 -0.429,0.021 -0.646,0.03c-0.602,0.027 -1.21,0.047 -1.829,0.062zm-4.367,0.014c-0.458,-0.008 -0.914,-0.019 -1.367,-0.033c-0.056,-0.002 -0.112,-0.004 -0.168,-0.006c-0.545,-0.018 -1.086,-0.041 -1.623,-0.067l0,-4.992c1.002,0.047 2.009,0.078 3.016,0.096c0.053,0.001 0.106,0.002 0.158,0.003c0.275,0.005 0.55,0.009 0.825,0.012l0,4.998c-0.194,-0.002 -0.388,-0.002 -0.581,-0.005c-0.088,-0.002 -0.173,-0.005 -0.26,-0.006zm-18.062,-2.28c-0.033,-0.01 -0.064,-0.019 -0.097,-0.028l0,-4.831c0.934,0.252 1.938,0.482 3,0.691l0,4.881c-0.918,-0.195 -1.765,-0.4 -2.536,-0.61c-0.122,-0.035 -0.248,-0.068 -0.367,-0.103zm21.078,8.281c0.275,0.005 0.55,0.009 0.825,0.012l0,4.999c-1.382,-0.013 -2.716,-0.053 -4,-0.116l0,-4.993c1.002,0.047 2.009,0.078 3.016,0.096c0.053,0 0.106,0.001 0.159,0.002zm3.809,-0.003c1.007,-0.019 2.014,-0.05 3.016,-0.096l0,4.993c-1.284,0.063 -2.618,0.103 -4,0.116l0,-4.999c0.275,-0.003 0.55,-0.007 0.825,-0.012c0.053,0 0.106,-0.001 0.159,-0.002zm8.016,-0.452l0,4.966c-0.961,0.101 -1.961,0.19 -3,0.263l0,-4.987c1.014,-0.066 2.016,-0.147 3,-0.242zm2,-0.216c1.031,-0.124 2.032,-0.265 3,-0.422l0,4.91c-0.942,0.166 -1.943,0.319 -3,0.458l0,-4.946zm5,-0.779c1.062,-0.209 2.066,-0.439 3,-0.691l0,4.831c-0.891,0.257 -1.894,0.506 -3,0.741l0,-4.881zm-34,0l0,4.881c-1.106,-0.235 -2.109,-0.484 -3,-0.741l0,-4.831c0.934,0.252 1.938,0.483 3,0.691zm2,0.358c0.968,0.157 1.969,0.298 3,0.422l0,4.946c-1.057,-0.139 -2.058,-0.292 -3,-0.458l0,-4.91zm5,0.637c0.984,0.095 1.986,0.176 3,0.243l0,4.987c-1.039,-0.073 -2.039,-0.162 -3,-0.263l0,-4.967zm-2.481,-5.98c-0.102,-0.01 -0.203,-0.021 -0.304,-0.031c-0.072,-0.007 -0.143,-0.016 -0.215,-0.023l0,-4.965c0.984,0.095 1.986,0.176 3,0.243l0,4.983c-0.84,-0.06 -1.67,-0.128 -2.481,-0.207zm-2.519,-5.236l0,4.946c-1.057,-0.139 -2.058,-0.292 -3,-0.458l0,-4.91c0.968,0.157 1.969,0.299 3,0.422zm19.666,5.396c-0.22,0.017 -0.442,0.034 -0.666,0.05l0,-4.987c1.014,-0.067 2.016,-0.147 3,-0.243l0,4.966c-0.618,0.065 -1.25,0.126 -1.899,0.179c-0.145,0.013 -0.29,0.024 -0.435,0.035zm4.334,-0.45l0,-4.946c1.031,-0.124 2.032,-0.265 3,-0.422l0,4.91c-0.942,0.166 -1.943,0.32 -3,0.458zm5,-5.725c1.062,-0.209 2.066,-0.439 3,-0.691l0,4.831c-0.891,0.257 -1.894,0.506 -3,0.741l0,-4.881zm-13.675,-4.568c-0.752,-0.019 -1.487,-0.048 -2.209,-0.083c-0.039,-0.002 -0.078,-0.004 -0.116,-0.005l0,-4.993c1.002,0.047 2.009,0.078 3.016,0.096c0.053,0.001 0.106,0.002 0.158,0.003c0.275,0.005 0.55,0.009 0.825,0.012l0,4.993c-0.487,-0.005 -0.978,-0.007 -1.453,-0.018c-0.073,-0.002 -0.148,-0.003 -0.221,-0.005zm-23.325,-14.291l0,-4.831c0.934,0.252 1.938,0.482 3,0.691l0,4.881c-0.123,-0.026 -0.25,-0.052 -0.37,-0.078c-0.532,-0.117 -1.051,-0.239 -1.547,-0.368c-0.378,-0.097 -0.737,-0.196 -1.083,-0.295zm18.175,-2.691c0.275,0.005 0.55,0.009 0.825,0.012l0,4.993c-1.346,-0.013 -2.684,-0.048 -4,-0.114l0,-4.989c1.002,0.047 2.009,0.078 3.016,0.096c0.053,0 0.106,0.001 0.159,0.002zm3.809,-0.003c1.007,-0.019 2.014,-0.05 3.016,-0.096l0,4.989c-0.17,0.008 -0.333,0.02 -0.504,0.028c-0.014,0.001 -0.028,0.001 -0.043,0.002c-0.671,0.03 -1.355,0.052 -2.048,0.068c-0.108,0.003 -0.216,0.004 -0.324,0.007c-0.356,0.007 -0.72,0.008 -1.081,0.012l0,-4.995c0.275,-0.003 0.55,-0.007 0.825,-0.012c0.053,-0.001 0.106,-0.002 0.159,-0.003zm22.787,0.502l-0.028,-0.006l-0.364,0.283c-0.528,0.411 -1.339,0.827 -2.379,1.229l0,-4.757c1.189,-0.414 2.201,-0.873 3,-1.376l0,4.138c0,0.152 -0.08,0.316 -0.229,0.489zm-12.771,3.77l0,-4.94c1.031,-0.124 2.032,-0.265 3,-0.422l0,4.902c-0.948,0.168 -1.946,0.322 -3,0.46zm5,-0.845l0,-4.873c1.062,-0.209 2.066,-0.439 3,-0.691l0,4.82c-0.896,0.261 -1.905,0.51 -3,0.744zm-7,-3.879l0,4.96c-0.966,0.102 -1.966,0.191 -3,0.265l0,-4.982c1.014,-0.067 2.016,-0.148 3,-0.243zm-20,4.962l0,-4.962c0.984,0.095 1.986,0.176 3,0.243l0,4.978c-1.018,-0.073 -2.022,-0.156 -3,-0.259zm-2,-5.178l0,4.941c-0.198,-0.026 -0.404,-0.047 -0.6,-0.074c-0.128,-0.018 -0.25,-0.037 -0.376,-0.055c-0.578,-0.083 -1.143,-0.172 -1.697,-0.265c-0.111,-0.019 -0.218,-0.039 -0.327,-0.058l0,-4.91c0.968,0.156 1.969,0.298 3,0.421zm10.752,17.427c-0.135,-0.01 -0.271,-0.02 -0.405,-0.03c-0.64,-0.05 -1.265,-0.105 -1.875,-0.166c-0.131,-0.013 -0.262,-0.027 -0.392,-0.04c-0.027,-0.003 -0.053,-0.007 -0.08,-0.009l0,-4.966c0.984,0.095 1.986,0.176 3,0.243l0,4.984c-0.081,-0.006 -0.167,-0.01 -0.248,-0.016zm-6.607,-0.747c-0.396,-0.063 -0.768,-0.131 -1.145,-0.197l0,-4.904c0.968,0.157 1.969,0.298 3,0.422l0,4.946c-0.612,-0.081 -1.211,-0.165 -1.786,-0.255c-0.023,-0.005 -0.046,-0.009 -0.069,-0.012zm-3.145,-5.459l0,4.873c-1.105,-0.237 -2.107,-0.489 -3,-0.751l0,-4.813c0.934,0.252 1.938,0.483 3,0.691zm-5,-1.302l0,4.751c-1.572,-0.607 -2.586,-1.227 -2.916,-1.779l-0.067,-0.112c-0.006,-0.031 -0.016,-0.064 -0.017,-0.095l0,-4.141c0.799,0.503 1.811,0.962 3,1.376zm23.984,2.749c1.007,-0.019 2.014,-0.05 3.016,-0.096l0,4.988c-1.314,0.065 -2.65,0.101 -4,0.115l0,-4.992c0.275,-0.003 0.55,-0.007 0.825,-0.012c0.053,-0.001 0.106,-0.002 0.159,-0.003zm12.923,3.837c-0.439,0.076 -0.882,0.151 -1.337,0.22c-0.261,0.04 -0.528,0.078 -0.796,0.116c-0.253,0.036 -0.516,0.067 -0.773,0.1l0,-4.941c1.031,-0.124 2.032,-0.265 3,-0.422l0,4.91c-0.032,0.006 -0.063,0.012 -0.094,0.017zm-6.771,0.854c-0.373,0.031 -0.758,0.051 -1.136,0.078l0,-4.978c1.014,-0.067 2.016,-0.147 3,-0.243l0,4.961c-0.581,0.061 -1.161,0.122 -1.758,0.172c-0.036,0.003 -0.07,0.007 -0.106,0.01zm11.428,-1.875c-0.498,0.139 -1.025,0.269 -1.563,0.396c-0.249,0.058 -0.503,0.116 -0.763,0.172c-0.077,0.017 -0.159,0.032 -0.237,0.049l0,-4.879c1.062,-0.209 2.066,-0.439 3,-0.691l0,4.831c-0.144,0.04 -0.289,0.081 -0.437,0.122zm5.425,-9.731c-0.092,0.679 -1.631,1.582 -4.378,2.431l0,0c-3.538,1.093 -9.074,2.094 -16.09,2.404c-0.359,0.015 -0.717,0.03 -1.083,0.042c-0.299,0.01 -0.599,0.019 -0.904,0.027c-0.828,0.018 -1.668,0.031 -2.534,0.031s-1.706,-0.013 -2.534,-0.032c-0.304,-0.007 -0.604,-0.017 -0.904,-0.027c-0.367,-0.011 -0.725,-0.027 -1.083,-0.042c-7.016,-0.31 -12.553,-1.311 -16.09,-2.404l0,0c-2.725,-0.842 -4.261,-1.738 -4.375,-2.414c0.005,-0.019 0.005,-0.035 0.017,-0.059c0.068,0.017 0.144,0.031 0.213,0.048c0.391,0.093 0.792,0.183 1.2,0.269c1.987,0.428 4.189,0.779 6.535,1.047c0.008,0 0.014,0.004 0.021,0.004c0.002,0 0.004,-0.001 0.005,-0.001c1.598,0.182 3.256,0.325 4.958,0.426c0.013,0 0.024,0.007 0.037,0.007c0.007,0 0.012,-0.004 0.019,-0.004c1.225,0.072 2.466,0.125 3.722,0.153c0.769,0.019 1.524,0.029 2.259,0.029c0.525,0 1.063,-0.006 1.606,-0.016c7.266,-0.112 14,-0.976 18.686,-2.315c0.216,-0.061 0.427,-0.124 0.635,-0.187c0.127,-0.039 0.257,-0.077 0.38,-0.116c0.362,-0.116 0.709,-0.235 1.044,-0.359c0.058,-0.022 0.113,-0.044 0.171,-0.066c0.283,-0.107 0.555,-0.218 0.815,-0.331c0.075,-0.033 0.152,-0.065 0.225,-0.098c0.277,-0.125 0.545,-0.253 0.793,-0.386c0.112,-0.059 0.209,-0.12 0.314,-0.18c0.12,-0.069 0.24,-0.139 0.351,-0.21c0.063,-0.04 0.138,-0.078 0.198,-0.118c4.477,0.971 5.657,2.033 5.771,2.447zm-30.989,-16.065c16.489,0 24.829,2.596 24.985,4.086c-0.121,0.676 -1.656,1.569 -4.374,2.409l0,0c-3.538,1.093 -9.074,2.094 -16.09,2.404c-0.359,0.015 -0.717,0.03 -1.083,0.042c-0.299,0.01 -0.599,0.019 -0.904,0.027c-0.828,0.019 -1.668,0.032 -2.534,0.032s-1.706,-0.013 -2.534,-0.032c-0.304,-0.007 -0.604,-0.017 -0.904,-0.027c-0.367,-0.011 -0.725,-0.027 -1.083,-0.042c-7.016,-0.31 -12.553,-1.311 -16.09,-2.404l0,0c-2.719,-0.84 -4.253,-1.733 -4.374,-2.409c0.156,-1.49 8.496,-4.086 24.985,-4.086zm-25,10.996l0,-4.141c0.799,0.503 1.811,0.962 3,1.376l0,4.788c-1.945,-0.729 -2.998,-1.46 -3,-2.023zm4.844,13.839c0.015,0.016 0.038,0.03 0.053,0.046c1.369,1.382 4.204,2.468 7.733,3.278c0.081,0.019 0.167,0.037 0.249,0.056c0.259,0.058 0.522,0.115 0.788,0.17c3.241,0.69 7.11,1.189 11.325,1.436c0.003,0 0.005,0.001 0.007,0.001c0.002,0 0.003,-0.001 0.004,-0.001c1.354,0.079 2.739,0.134 4.153,0.158c0.626,0.013 1.242,0.021 1.844,0.021c0.69,0 1.398,-0.008 2.118,-0.025c1.308,-0.027 2.597,-0.081 3.868,-0.155c0.005,0 0.009,0.003 0.014,0.003c0.009,0 0.016,-0.005 0.025,-0.005c4.226,-0.249 8.191,-0.753 11.544,-1.478c-0.726,0.38 -1.72,0.773 -2.958,1.156l0,0c-3.735,1.154 -9.7,2.205 -17.281,2.449c-0.225,0.007 -0.447,0.015 -0.675,0.021c-0.245,0.006 -0.494,0.01 -0.743,0.015c-0.629,0.01 -1.262,0.019 -1.912,0.019c-0.866,0 -1.706,-0.013 -2.534,-0.032c-0.304,-0.007 -0.604,-0.017 -0.904,-0.027c-0.367,-0.011 -0.725,-0.027 -1.083,-0.042c-7.016,-0.31 -12.553,-1.311 -16.09,-2.404l0,0c-2.75,-0.85 -4.289,-1.754 -4.378,-2.433c0.111,-0.376 1.122,-1.317 4.833,-2.227zm-4.844,9.161l0,-4.141c0.799,0.503 1.811,0.962 3,1.376l0,4.769l-0.571,-0.222l-0.012,0.012c-1.57,-0.651 -2.415,-1.29 -2.417,-1.794zm3,11l0,-4.141c0.799,0.503 1.811,0.962 3,1.376l0,4.788c-1.945,-0.729 -2.998,-1.46 -3,-2.023zm47,2.023l0,-4.787c1.189,-0.414 2.201,-0.873 3,-1.376l0,4.138c-0.001,0.563 -1.055,1.295 -3,2.025zm2.987,-8.942c-0.109,0.677 -1.645,1.575 -4.376,2.419l0,0c-3.538,1.093 -9.074,2.094 -16.09,2.404c-0.359,0.015 -0.717,0.03 -1.083,0.042c-0.299,0.01 -0.599,0.019 -0.904,0.027c-0.828,0.018 -1.668,0.031 -2.534,0.031c-0.866,0 -1.707,-0.013 -2.536,-0.032c-0.301,-0.007 -0.598,-0.017 -0.895,-0.027c-0.369,-0.012 -0.729,-0.027 -1.09,-0.042c-7.016,-0.31 -12.552,-1.311 -16.09,-2.404l0,0c-2.645,-0.817 -4.173,-1.685 -4.365,-2.355c0.298,0.104 0.607,0.205 0.924,0.304c0.032,0.01 0.064,0.02 0.096,0.029c0.27,0.083 0.546,0.163 0.829,0.241c0.107,0.03 0.215,0.06 0.324,0.089c0.16,0.043 0.324,0.084 0.488,0.126c3.642,0.933 8.291,1.594 13.31,1.891c0.002,0 0.003,0.001 0.005,0.001c0.001,0 0.002,-0.001 0.003,-0.001c1.55,0.092 3.133,0.149 4.733,0.168c0.426,0.008 0.849,0.012 1.264,0.012c0.551,0 1.115,-0.007 1.686,-0.017c1.459,-0.024 2.899,-0.078 4.307,-0.162c0.003,0 0.005,0.002 0.008,0.002c0.005,0 0.008,-0.003 0.013,-0.003c1.715,-0.103 3.375,-0.25 4.97,-0.433c0.006,0 0.011,0.003 0.017,0.003c0.022,0 0.04,-0.011 0.062,-0.013c1.776,-0.205 3.46,-0.457 5.023,-0.75c0.322,-0.059 0.639,-0.12 0.953,-0.183c0.07,-0.014 0.14,-0.028 0.21,-0.043c2.953,-0.606 5.509,-1.391 7.263,-2.364c0.096,-0.052 0.186,-0.106 0.277,-0.159c0.111,-0.066 0.217,-0.133 0.32,-0.201c0.096,-0.062 0.207,-0.122 0.295,-0.185c1.974,0.704 2.518,1.334 2.583,1.585zm0.013,-13.058l0,-4.787c1.189,-0.414 2.201,-0.873 3,-1.376l0,4.138c-0.001,0.563 -1.055,1.295 -3,2.025z"/>
 </g>
</svg>