<svg width="512" height="512" xmlns="http://www.w3.org/2000/svg">

 <g>
  <title>background</title>
  <rect fill="none" id="canvas_background" height="402" width="582" y="-1" x="-1"/>
 </g>
 <g>
  <title>Layer 1</title>
  <path fill="#358d28" id="svg_2" d="m410.8,98.9c0,-0.1 0,-0.2 -0.1,-0.3c0,-0.1 -0.1,-0.3 -0.1,-0.4c0,-0.1 -0.1,-0.2 -0.1,-0.3c0,-0.1 -0.1,-0.3 -0.1,-0.4c0,-0.1 -0.1,-0.2 -0.1,-0.3c0,-0.1 -0.1,-0.2 -0.2,-0.4c0,-0.1 -0.1,-0.2 -0.1,-0.3c-0.1,-0.1 -0.1,-0.2 -0.2,-0.3c-0.1,-0.1 -0.1,-0.2 -0.2,-0.3c-0.1,-0.1 -0.1,-0.2 -0.2,-0.3c-0.1,-0.1 -0.2,-0.2 -0.2,-0.3c-0.1,-0.1 -0.1,-0.2 -0.2,-0.3c-0.1,-0.1 -0.2,-0.2 -0.3,-0.3c-0.1,-0.1 -0.2,-0.2 -0.3,-0.3c-0.1,-0.1 -0.2,-0.2 -0.3,-0.2c-0.1,-0.1 -0.2,-0.2 -0.3,-0.3c-0.1,0 -0.1,-0.1 -0.2,-0.1c0,0 -0.1,0 -0.1,-0.1c-0.1,-0.1 -0.2,-0.2 -0.4,-0.2c-0.1,-0.1 -0.2,-0.1 -0.3,-0.2c-0.1,-0.1 -0.3,-0.1 -0.4,-0.2c-0.1,0 -0.2,-0.1 -0.3,-0.1c-0.1,-0.1 -0.2,-0.1 -0.4,-0.1c-0.1,0 -0.2,-0.1 -0.3,-0.1c-0.1,0 -0.2,-0.1 -0.3,-0.1c-0.1,0 -0.3,-0.1 -0.4,-0.1c-0.1,0 -0.2,0 -0.3,-0.1c-0.1,0 -0.3,0 -0.4,-0.1c-0.1,0 -0.2,0 -0.3,0c-0.1,0 -0.3,0 -0.4,0c0,0 -0.1,0 -0.1,0l-294.5,0c0,0 -0.1,0 -0.1,0c-0.1,0 -0.3,0 -0.4,0c-0.1,0 -0.2,0 -0.3,0c-0.1,0 -0.3,0 -0.4,0.1c-0.1,0 -0.2,0 -0.3,0.1c-0.1,0 -0.2,0.1 -0.4,0.1c-0.1,0 -0.2,0.1 -0.3,0.1c-0.1,0 -0.2,0.1 -0.3,0.1c-0.1,0 -0.3,0.1 -0.4,0.1c-0.1,0 -0.2,0.1 -0.3,0.1c-0.1,0.1 -0.3,0.1 -0.4,0.2c-0.1,0 -0.2,0.1 -0.3,0.2c-0.1,0.1 -0.3,0.2 -0.4,0.2c0,0 -0.1,0 -0.1,0.1c-0.1,0 -0.1,0.1 -0.2,0.1c-0.1,0.1 -0.2,0.2 -0.3,0.3c-0.1,0.1 -0.2,0.2 -0.3,0.2c-0.1,0.1 -0.2,0.2 -0.3,0.3c-0.1,0.1 -0.2,0.2 -0.3,0.3c-0.1,0.1 -0.1,0.2 -0.2,0.3c-0.1,0.1 -0.2,0.2 -0.2,0.3c-0.1,0.1 -0.1,0.2 -0.2,0.3c-0.1,0.1 -0.1,0.2 -0.2,0.3c-0.1,0.1 -0.1,0.2 -0.2,0.3c-0.1,0.1 -0.1,0.2 -0.1,0.3c-0.1,0.1 -0.1,0.2 -0.2,0.4c0,0.1 -0.1,0.2 -0.1,0.3c0,0.1 -0.1,0.3 -0.1,0.4c0,0.1 -0.1,0.2 -0.1,0.3c0,0.1 -0.1,0.3 -0.1,0.4c0,0.1 0,0.2 -0.1,0.3c0,0.1 0,0.2 0,0.4c0,0.1 0,0.3 0,0.4c0,0.1 0,0.1 0,0.2l0,312.2c0,4.1 3.4,7.5 7.5,7.5l294.7,0c4.1,0 7.5,-3.4 7.5,-7.5l0,-312.2c0,-0.1 0,-0.1 0,-0.2c0,-0.1 0,-0.3 0,-0.4c0,-0.1 0,-0.3 0,-0.4zm-167.5,100.3l0,-12.7l25.3,0l0,12.7l-25.3,0zm32.9,-27.7l-40.3,0l-66,0l-46.4,-64.1l265.3,0l-46.4,64.1l-66.2,0zm-160,-48.5l43.7,60.4c1.4,1.9 3.7,3.1 6.1,3.1l62.4,0l0,20.2c0,4.1 3.4,7.5 7.5,7.5l12.7,0l0,190.4l-132.4,0l0,-281.6zm147.3,281.6l0,-190.4l12.7,0c4.1,0 7.5,-3.4 7.5,-7.5l0,-20.2l62.3,0c2.4,0 4.7,-1.2 6.1,-3.1l43.7,-60.4l0,281.6l-132.3,0z"/>
  <path fill="#358d28" id="svg_3" d="m203.3,314.8l-65.3,0c-4.1,0 -7.5,3.4 -7.5,7.5l0,51.3c0,4.1 3.4,7.5 7.5,7.5l65.3,0c4.1,0 7.5,-3.4 7.5,-7.5l0,-51.3c0,-4.1 -3.3,-7.5 -7.5,-7.5zm-7.5,51.4l-50.3,0l0,-36.3l50.3,0l0,36.3z"/>
 </g>
</svg>