<svg width="32" height="32" xmlns="http://www.w3.org/2000/svg">

 <g>
  <title>background</title>
  <rect fill="none" id="canvas_background" height="402" width="582" y="-1" x="-1"/>
 </g>
 <g>
  <title>Layer 1</title>
  <path fill="#358d28" id="svg_2" d="m26,24c-0.552,0 -1,0.447 -1,1l0,4l-18,0l0,-12l3,0l12,0l3,0c0.552,0 1,-0.447 1,-1s-0.448,-1 -1,-1l-2,0l0,-7c0,-3.859 -3.14,-7 -7,-7s-7,3.141 -7,7l0,7l-3,0c-0.552,0 -1,0.447 -1,1l0,14c0,0.553 0.448,1 1,1l20,0c0.552,0 1,-0.447 1,-1l0,-5c0,-0.553 -0.448,-1 -1,-1zm-15,-16c0,-2.757 2.243,-5 5,-5s5,2.243 5,5l0,7l-10,0l0,-7z"/>
  <path fill="#358d28" id="svg_3" d="m30.73,15.316c-0.378,-0.403 -1.011,-0.425 -1.413,-0.047l-10.004,9.361l-4.629,-4.332c-0.402,-0.377 -1.036,-0.355 -1.413,0.047c-0.377,0.403 -0.356,1.036 0.047,1.414l5.313,4.971c0.192,0.18 0.438,0.27 0.683,0.27s0.491,-0.09 0.683,-0.27l10.688,-10c0.401,-0.377 0.422,-1.01 0.045,-1.414z"/>
 </g>
</svg>