<svg width="64" height="64" xmlns="http://www.w3.org/2000/svg">

 <title/>
 <g>
  <title>background</title>
  <rect fill="none" id="canvas_background" height="402" width="582" y="-1" x="-1"/>
 </g>
 <g>
  <title>Layer 1</title>
  <rect fill="none" id="svg_1" width="64" height="64" class="cls-1"/>
  <path fill="#358d28" id="svg_2" d="m49,56l-34,0a3,3 0 0 1 -3,-3l0,-28a3,3 0 0 1 3,-3l34,0a3,3 0 0 1 3,3l0,28a3,3 0 0 1 -3,3zm-34,-32a1,1 0 0 0 -1,1l0,28a1,1 0 0 0 1,1l34,0a1,1 0 0 0 1,-1l0,-28a1,1 0 0 0 -1,-1l-34,0z" class="cls-2"/>
  <path fill="#358d28" id="svg_3" d="m32,47a5,5 0 0 1 -3,-9l0,-4a3,3 0 0 1 6,0l0,4a5,5 0 0 1 -3,9zm0,-14a1,1 0 0 0 -1,1l0,4.55a1,1 0 0 1 -0.5,0.87a3,3 0 0 0 -1.5,2.58a3,3 0 0 0 6,0a3,3 0 0 0 -1.5,-2.58a1,1 0 0 1 -0.5,-0.87l0,-4.55a1,1 0 0 0 -1,-1z" class="cls-2"/>
  <path fill="#358d28" id="svg_4" d="m42,24l-20,0a1,1 0 0 1 -1,-1l0,-5a11,11 0 0 1 22,0l0,5a1,1 0 0 1 -1,1zm-19,-2l18,0l0,-4a9,9 0 0 0 -18,0l0,4z" class="cls-2"/>
 </g>
</svg>